# xmcd
#
# Track frame offsets:
#	150
#	10850
#	26895
#	36910
#	51281
#	65822
#	82991
#	95009
#	107790
#	126744
#	137302
#
# Disc length: 1982 seconds
# Revision: 0
# Processed by: cddbd v1.5.2PL0 Copyright (c) Steve Scherf et al.
# Submitted via: dBpowerAMP V12.0
#
DISCID=9b07bc0b
DTITLE=Crying Uncle Bluegrass Band - Crying Uncle
DYEAR=2018
DGENRE=Bluegrass
TTITLE0=I'll Remember You in My Prayers
TTITLE1=Cabin in Caroline
TTITLE2=E.M.D.
TTITLE3=I've Endured
TTITLE4=Freeborn Man
TTITLE5=Gospel Plow
TTITLE6=Road to Columbus
TTITLE7=Run, Molly, Run (Molly and Tembrooks)
TTITLE8=Plant Some Flowers by My Grave
TTITLE9=Say You'll Stay in My Arms
TTITLE10=Dawg Patch
EXTD=
EXTT0=
EXTT1=
EXTT2=
EXTT3=
EXTT4=
EXTT5=
EXTT6=
EXTT7=
EXTT8=
EXTT9=
EXTT10=
PLAYORDER=
